{"title":"THX 1138","uid":6109348,"size":1366582710,"categoryP":"video","categoryS":"movies","magnet":"?xt=urn:btih:b138110324e5f7d8af381e553bce0afe361b2b59&amp;dn=THX+1138&amp;tr=udp%3A%2F%2Ftracker.openbittorrent.com%3A80&amp;tr=udp%3A%2F%2Fopen.demonii.com%3A1337&amp;tr=udp%3A%2F%2Ftracker.coppersurfer.tk%3A6969&amp;tr=udp%3A%2F%2Fexodus.desync.com%3A6969","seeders":0,"leechers":1,"uploader":"ogvh5150","files":6,"time":1295289526,"description":"THX 1138 LaserDisc Rip by me ogvh5150\n\nXvid Codec and 256kbps mp3 audio. Captured to huffy codec. Post-Audio processing was done in Sound Forge 5. Two track mono Audio. \n\nI included the &quot;Buck Rogers&quot; intro since I think it was George Lucas' idea to show the viewer the contrasts of the &quot;bright&quot; future as opposed to a &quot;dark&quot; one where there is a state controlled society. A society where sexual intercourse is banned and there is medication for everything that ails you. And a state sponsored religion.\n\nComplete file package includes:\nTHX 1138 LDRip.nfo\n\nTHX 1138 LDRip Sample.avi\nTHX 1138 LDRip Side A.avi\nTHX 1138 LDRip Side B.avi\nTHX 1138 LDRip.sfv\n\n\n\nGeneral\nComplete name                    : x:\\THX 1138\\THX 1138 LDRip Side A.avi\nFormat                           : AVI\nFormat/Info                      : Audio Video Interleave\nFile size                        : 663 MiB\nDuration                         : 44mn 31s\nOverall bit rate                 : 2 081 Kbps\nWriting library                  : VirtualDub build 16297/release\n\nVideo\nID                               : 0\nFormat                           : MPEG-4 Visual\nFormat profile                   : Simple@L3\nFormat settings, BVOP            : No\nFormat settings, QPel            : No\nFormat settings, GMC             : No warppoints\nFormat settings, Matrix          : Default (H.263)\nCodec ID                         : XVID\nCodec ID/Hint                    : XviD\nDuration                         : 44mn 31s\nBit rate                         : 1 813 Kbps\nWidth                            : 704 pixels\nHeight                           : 288 pixels\nDisplay aspect ratio             : 2.40:1\nFrame rate                       : 29.970 fps\nResolution                       : 24 bits\nColorimetry                      : 4:2:0\nScan type                        : Progressive\nBits/(Pixel*Frame)               : 0.298\nStream size                      : 578 MiB (87%)\nWriting library                  : XviD 0.0.12 (UTC 2003-06-11)\n\nAudio\nID                               : 1\nFormat                           : MPEG Audio\nFormat version                   : Version 1\nFormat profile                   : Layer 3\nCodec ID                         : 55\nCodec ID/Hint                    : MP3\nDuration                         : 44mn 31s\nBit rate mode                    : Constant\nBit rate                         : 256 Kbps\nChannel(s)                       : 2 channels\nSampling rate                    : 48.0 KHz\nResolution                       : 16 bits\nStream size                      : 81.5 MiB (12%)\nAlignment                        : Split accross interleaves\nInterleave, duration             : 33 ms (1.00 video frame)\nInterleave, preload duration     : 500 ms\n\n","torrent":{"xt":"urn:btih:b138110324e5f7d8af381e553bce0afe361b2b59","amp;dn":"THX+1138","amp;tr":["udp%3A%2F%2Ftracker.openbittorrent.com%3A80","udp%3A%2F%2Fopen.demonii.com%3A1337","udp%3A%2F%2Ftracker.coppersurfer.tk%3A6969","udp%3A%2F%2Fexodus.desync.com%3A6969"],"infoHash":"b138110324e5f7d8af381e553bce0afe361b2b59","infoHashBuffer":{"type":"Buffer","data":[177,56,17,3,36,229,247,216,175,56,30,85,59,206,10,254,54,27,43,89]},"announce":[],"urlList":[]}}